nColumns=28
nRows=71
DataType=double
version=3
OpenSimVersion=4.1
endheader
time	ground_force_1_vx	ground_force_1_vy	ground_force_1_vz	ground_force_1_px	ground_force_1_py	ground_force_1_pz	ground_force_1_mx	ground_force_1_my	ground_force_1_mz	ground_force_2_vx	ground_force_2_vy	ground_force_2_vz	ground_force_2_px	ground_force_2_py	ground_force_2_pz	ground_force_2_mx	ground_force_2_my	ground_force_2_mz	ground_force_3_vx	ground_force_3_vy	ground_force_3_vz	ground_force_3_px	ground_force_3_py	ground_force_3_pz	ground_force_3_mx	ground_force_3_my	ground_force_3_mz
6.75	12.4451	685.107	-11.0498	-0.170453	0.006	-0.453881	0	4.76653	0	-37.0804	293.495	21.3138	-0.115759	0.006	-0.799351	0	2.52992	0	0	0	0	0.00020805	0	-0.000117561	0	0	0
6.76	12.8177	681.896	-11.4062	-0.171159	0.006	-0.453818	0	4.76696	0	-37.2513	296.186	22.3741	-0.115991	0.006	-0.799444	0	2.55028	0	0	0	0	0.00020805	0	-0.000117561	0	0	0
6.77	13.1878	678.303	-11.7439	-0.171955	0.006	-0.45377	0	4.77507	0	-37.298	298.195	23.3262	-0.116212	0.006	-0.799518	0	2.57233	0	0	0	0	0.00020805	0	-0.000117561	0	0	0
6.78	13.5468	674.331	-12.0625	-0.172841	0.006	-0.453739	0	4.7901	0	-37.2093	299.404	24.1446	-0.11642	0.006	-0.799571	0	2.5939	0	0	0	0	0.00020805	0	-0.000117561	0	0	0
6.79	13.8847	669.984	-12.3642	-0.173819	0.006	-0.453726	0	4.81124	0	-36.98	299.723	24.8083	-0.116612	0.006	-0.799602	0	2.61302	0	0	0	0	0.00020805	0	-0.000117561	0	0	0
6.8	14.1912	665.268	-12.6547	-0.174887	0.006	-0.453729	0	4.83759	0	-36.6089	299.096	25.3012	-0.116786	0.006	-0.799613	0	2.62806	0	0	0	0	0.00020805	0	-0.000117561	0	0	0
6.81	14.4535	660.192	-12.9431	-0.176043	0.006	-0.453747	0	4.86808	0	-36.0976	297.496	25.6128	-0.116939	0.006	-0.799603	0	2.63775	0	0	0	0	0.00020805	0	-0.000117561	0	0	0
6.82	14.6562	654.771	-13.2424	-0.177284	0.006	-0.45378	0	4.90142	0	-35.4503	294.932	25.7385	-0.117071	0.006	-0.799573	0	2.64097	0	0	0	0	0.00020805	0	-0.000117561	0	0	0
6.83	14.7836	649.031	-13.567	-0.178605	0.006	-0.453823	0	4.93592	0	-34.6727	291.437	25.6798	-0.11718	0.006	-0.799527	0	2.63692	0	0	0	0	0.00020805	0	-0.000117561	0	0	0
6.84	14.8249	643.009	-13.9304	-0.180004	0.006	-0.453874	0	4.96953	0	-33.7716	287.072	25.4444	-0.117265	0.006	-0.799465	0	2.62491	0	0	0	0	0.00020805	0	-0.000117561	0	0	0
6.85	14.7791	636.752	-14.3443	-0.181477	0.006	-0.453928	0	5.00002	0	-32.7549	281.913	25.0458	-0.11733	0.006	-0.799391	0	2.60426	0	0	0	0	0.00020805	0	-0.000117561	0	0	0
6.86	14.6539	630.317	-14.817	-0.183022	0.006	-0.453986	0	5.02492	0	-31.6323	276.055	24.5027	-0.117374	0.006	-0.799309	0	2.57439	0	0	0	0	0.00020805	0	-0.000117561	0	0	0
6.87	14.4612	623.767	-15.3518	-0.184637	0.006	-0.454043	0	5.04146	0	-30.4161	269.596	23.8382	-0.117399	0.006	-0.799225	0	2.53464	0	0	0	0	0.00020805	0	-0.000117561	0	0	0
6.88	14.2157	617.171	-15.9464	-0.186317	0.006	-0.454101	0	5.0465	0	-29.1197	262.64	23.0777	-0.117405	0.006	-0.799142	0	2.48401	0	0	0	0	0.00020805	0	-0.000117561	0	0	0
6.89	13.9341	610.597	-16.5948	-0.18806	0.006	-0.454156	0	5.03686	0	-27.7573	255.288	22.2473	-0.117392	0.006	-0.799063	0	2.4214	0	0	0	0	0.00020805	0	-0.000117561	0	0	0
6.9	13.6345	604.107	-17.2893	-0.189861	0.006	-0.454211	0	5.00983	0	-26.3433	247.636	21.3723	-0.117357	0.006	-0.798992	0	2.34586	0	0	0	0	0.00020805	0	-0.000117561	0	0	0
6.91	13.3344	597.757	-18.0208	-0.191713	0.006	-0.454262	0	4.9633	0	-24.893	239.774	20.4758	-0.117299	0.006	-0.798932	0	2.25677	0	0	0	0	0.00020805	0	-0.000117561	0	0	0
6.92	13.0482	591.59	-18.7795	-0.193607	0.006	-0.454312	0	4.89553	0	-23.4213	231.779	19.5778	-0.117214	0.006	-0.798887	0	2.15405	0	0	0	0	0.00020805	0	-0.000117561	0	0	0
6.93	12.786	585.64	-19.5554	-0.195533	0.006	-0.454358	0	4.80502	0	-21.9421	223.723	18.6945	-0.1171	0.006	-0.798859	0	2.03817	0	0	0	0	0.00020805	0	-0.000117561	0	0	0
6.94	12.5505	579.931	-20.342	-0.197475	0.006	-0.454402	0	4.69057	0	-20.4671	215.667	17.8388	-0.116955	0.006	-0.798852	0	1.91023	0	0	0	0	0.00020805	0	-0.000117561	0	0	0
6.95	12.3385	574.479	-21.1364	-0.199418	0.006	-0.45444	0	4.55143	0	-19.0062	207.664	17.0205	-0.116776	0.006	-0.79887	0	1.7719	0	0	0	0	0.00020805	0	-0.000117561	0	0	0
6.96	12.1408	569.293	-21.9398	-0.201344	0.006	-0.454471	0	4.38738	0	-17.5675	199.764	16.2472	-0.116566	0.006	-0.798915	0	1.62534	0	0	0	0	0.00020805	0	-0.000117561	0	0	0
6.97	11.9432	564.37	-22.7554	-0.203236	0.006	-0.454493	0	4.19887	0	-16.1581	192.007	15.524	-0.116324	0.006	-0.798992	0	1.47291	0	0	0	0	0.00020805	0	-0.000117561	0	0	0
6.98	11.7253	559.698	-23.5863	-0.205076	0.006	-0.454503	0	3.98701	0	-14.7842	184.431	14.853	-0.116047	0.006	-0.799102	0	1.31712	0	0	0	0	0.00020805	0	-0.000117561	0	0	0
6.99	11.4631	555.256	-24.4331	-0.206849	0.006	-0.454503	0	3.7535	0	-13.4505	177.064	14.234	-0.115737	0.006	-0.799247	0	1.16046	0	0	0	0	0.00020805	0	-0.000117561	0	0	0
7	11.1366	551.022	-25.2916	-0.208544	0.006	-0.45449	0	3.50043	0	-12.1604	169.936	13.6644	-0.115394	0.006	-0.799427	0	1.00527	0	0	0	0	0.00020805	0	-0.000117561	0	0	0
7.01	10.7365	546.991	-26.1509	-0.210157	0.006	-0.454471	0	3.23011	0	-10.9162	163.068	13.1414	-0.115022	0.006	-0.799643	0	0.853532	0	0	0	0	0.00020805	0	-0.000117561	0	0	0
7.02	10.2685	543.172	-26.9937	-0.211692	0.006	-0.45445	0	2.94503	0	-9.71988	156.484	12.6631	-0.114621	0.006	-0.799895	0	0.706611	0	0	0	0	0.00020805	0	-0.000117561	0	0	0
7.03	9.75237	539.596	-27.799	-0.213163	0.006	-0.454437	0	2.64791	0	-8.57327	150.205	12.2296	-0.114197	0.006	-0.800182	0	0.565261	0	0	0	0	0.00020805	0	-0.000117561	0	0	0
7.04	9.21642	536.299	-28.5469	-0.214582	0.006	-0.454439	0	2.34169	0	-7.47776	144.248	11.8434	-0.113755	0.006	-0.800505	0	0.429793	0	0	0	0	0.00020805	0	-0.000117561	0	0	0
7.05	8.69193	533.321	-29.2219	-0.215967	0.006	-0.454462	0	2.02939	0	-6.43357	138.626	11.5079	-0.113302	0.006	-0.800869	0	0.300231	0	0	0	0	0.00020805	0	-0.000117561	0	0	0
7.06	8.20928	530.697	-29.8154	-0.217332	0.006	-0.454512	0	1.71401	0	-5.43888	133.346	11.2263	-0.112846	0.006	-0.801276	0	0.176415	0	0	0	0	0.00020805	0	-0.000117561	0	0	0
7.07	7.79195	528.454	-30.3272	-0.218689	0.006	-0.45459	0	1.39851	0	-4.48993	128.411	11.0004	-0.112391	0.006	-0.801731	0	0.058104	0	0	0	0	0.00020805	0	-0.000117561	0	0	0
7.08	7.45188	526.603	-30.7642	-0.220045	0.006	-0.454697	0	1.08566	0	-3.58148	123.82	10.8316	-0.111944	0.006	-0.802236	0	-0.054836	0	0	0	0	0.00020805	0	-0.000117561	0	0	0
7.09	7.1888	525.135	-31.1384	-0.2214	0.006	-0.454831	0	0.77807	0	-2.70813	119.572	10.7213	-0.111512	0.006	-0.802797	0	-0.162401	0	0	0	0	0.00020805	0	-0.000117561	0	0	0
7.1	6.99169	524.024	-31.464	-0.222753	0.006	-0.454989	0	0.478223	0	-1.86583	115.671	10.6715	-0.111107	0.006	-0.80342	0	-0.26454	0	0	0	0	0.00020805	0	-0.000117561	0	0	0
7.11	6.84295	523.223	-31.7551	-0.224094	0.006	-0.455168	0	0.188443	0	-1.05318	112.126	10.6845	-0.110744	0.006	-0.804109	0	-0.361202	0	0	0	0	0.00020805	0	-0.000117561	0	0	0
7.12	6.72429	522.676	-32.0228	-0.225417	0.006	-0.455363	0	-0.089121	0	-0.272124	108.944	10.761	-0.110441	0.006	-0.804869	0	-0.452379	0	0	0	0	0.00020805	0	-0.000117561	0	0	0
7.13	6.62005	522.326	-32.2738	-0.226709	0.006	-0.455571	0	-0.352498	0	0.472396	106.13	10.899	-0.110212	0.006	-0.805701	0	-0.53794	0	0	0	0	0.00020805	0	-0.000117561	0	0	0
7.14	6.51968	522.129	-32.5099	-0.227962	0.006	-0.455786	0	-0.599936	0	1.17338	103.681	11.0928	-0.110069	0.006	-0.806598	0	-0.617529	0	0	0	0	0.00020805	0	-0.000117561	0	0	0
7.15	6.41887	522.059	-32.7292	-0.229167	0.006	-0.456007	0	-0.830003	0	1.82331	101.59	11.333	-0.11002	0.006	-0.807546	0	-0.690639	0	0	0	0	0.00020805	0	-0.000117561	0	0	0
7.16	6.31808	522.102	-32.9285	-0.230315	0.006	-0.45623	0	-1.04165	0	2.41565	99.8449	11.6078	-0.110067	0.006	-0.808527	0	-0.756705	0	0	0	0	0.00020805	0	-0.000117561	0	0	0
7.17	6.22	522.252	-33.1058	-0.231397	0.006	-0.456451	0	-1.23424	0	2.94612	98.4373	11.9053	-0.110212	0.006	-0.809518	0	-0.815115	0	0	0	0	0.00020805	0	-0.000117561	0	0	0
7.18	6.12735	522.494	-33.2627	-0.232403	0.006	-0.456664	0	-1.40746	0	3.413	97.3597	12.2148	-0.110457	0.006	-0.810495	0	-0.86517	0	0	0	0	0.00020805	0	-0.000117561	0	0	0
7.19	6.04048	522.807	-33.4041	-0.233325	0.006	-0.456864	0	-1.5612	0	3.81651	96.6087	12.5277	-0.110804	0.006	-0.811438	0	-0.906123	0	0	0	0	0.00020805	0	-0.000117561	0	0	0
7.2	5.95539	523.168	-33.538	-0.234156	0.006	-0.457048	0	-1.69557	0	4.15894	96.1838	12.8386	-0.111259	0.006	-0.81233	0	-0.937423	0	0	0	0	0.00020805	0	-0.000117561	0	0	0
7.21	5.86422	523.562	-33.6734	-0.234894	0.006	-0.457211	0	-1.81068	0	4.44463	96.0859	13.1452	-0.111827	0.006	-0.813161	0	-0.95896	0	0	0	0	0.00020805	0	-0.000117561	0	0	0
7.22	5.75629	523.978	-33.8184	-0.235539	0.006	-0.457351	0	-1.90673	0	4.67946	96.3181	13.448	-0.112511	0.006	-0.813925	0	-0.971162	0	0	0	0	0.00020805	0	-0.000117561	0	0	0
7.23	5.62081	524.41	-33.9795	-0.236096	0.006	-0.457469	0	-1.98405	0	4.87062	96.8847	13.7498	-0.113306	0.006	-0.814615	0	-0.974966	0	0	0	0	0.00020805	0	-0.000117561	0	0	0
7.24	5.4505	524.848	-34.1623	-0.236572	0.006	-0.457565	0	-2.04331	0	5.02728	97.7901	14.0551	-0.114207	0.006	-0.815233	0	-0.971683	0	0	0	0	0.00020805	0	-0.000117561	0	0	0
7.25	5.2428	525.285	-34.3726	-0.236978	0.006	-0.457641	0	-2.08545	0	5.16021	99.0344	14.3682	-0.115206	0.006	-0.815779	0	-0.962918	0	0	0	0	0.00020805	0	-0.000117561	0	0	0
7.26	5.0004	525.727	-34.6167	-0.237327	0.006	-0.4577	0	-2.11163	0	5.27987	100.608	14.6922	-0.11629	0.006	-0.816258	0	-0.95046	0	0	0	0	0.00020805	0	-0.000117561	0	0	0
7.27	4.73187	526.19	-34.9	-0.237636	0.006	-0.457745	0	-2.12328	0	5.39451	102.488	15.0285	-0.117441	0.006	-0.816678	0	-0.936182	0	0	0	0	0.00020805	0	-0.000117561	0	0	0
7.28	4.44898	526.687	-35.228	-0.237919	0.006	-0.457777	0	-2.12196	0	5.5088	104.636	15.3776	-0.118637	0.006	-0.817045	0	-0.921937	0	0	0	0	0.00020805	0	-0.000117561	0	0	0
7.29	4.16314	527.235	-35.6053	-0.238188	0.006	-0.457797	0	-2.10942	0	5.62382	107.004	15.7411	-0.119854	0.006	-0.817367	0	-0.90952	0	0	0	0	0.00020805	0	-0.000117561	0	0	0
7.3	3.88467	527.848	-36.0336	-0.238449	0.006	-0.457807	0	-2.08749	0	5.73823	109.537	16.1221	-0.121069	0.006	-0.817661	0	-0.900583	0	0	0	0	0.00020805	0	-0.000117561	0	0	0
7.31	3.62253	528.535	-36.511	-0.238709	0.006	-0.457806	0	-2.05797	0	5.84933	112.182	16.5257	-0.122266	0.006	-0.817945	0	-0.896469	0	0	0	0	0.00020805	0	-0.000117561	0	0	0
7.32	3.38507	529.306	-37.0314	-0.23897	0.006	-0.457797	0	-2.02246	0	5.95424	114.889	16.9589	-0.123431	0.006	-0.818239	0	-0.898077	0	0	0	0	0.00020805	0	-0.000117561	0	0	0
7.33	3.18171	530.158	-37.5851	-0.23923	0.006	-0.457779	0	-1.98232	0	6.05176	117.611	17.429	-0.124555	0.006	-0.818562	0	-0.905852	0	0	0	0	0.00020805	0	-0.000117561	0	0	0
7.34	3.02082	531.072	-38.1594	-0.239489	0.006	-0.457753	0	-1.9386	0	6.14228	120.309	17.9434	-0.125633	0.006	-0.818925	0	-0.919854	0	0	0	0	0.00020805	0	-0.000117561	0	0	0
7.35	2.90831	532.009	-38.7382	-0.239743	0.006	-0.457722	0	-1.89192	0	6.22544	122.951	18.5084	-0.126663	0.006	-0.819338	0	-0.939697	0	0	0	0	0.00020805	0	-0.000117561	0	0	0
7.36	2.85078	532.913	-39.3022	-0.239991	0.006	-0.457688	0	-1.84269	0	6.29801	125.519	19.1279	-0.127641	0.006	-0.819804	0	-0.964562	0	0	0	0	0.00020805	0	-0.000117561	0	0	0
7.37	2.85742	533.71	-39.8302	-0.240234	0.006	-0.457655	0	-1.79127	0	6.35316	128.004	19.802	-0.128567	0.006	-0.820322	0	-0.993201	0	0	0	0	0.00020805	0	-0.000117561	0	0	0
7.38	2.93651	534.325	-40.3033	-0.240473	0.006	-0.457627	0	-1.73787	0	6.38114	130.41	20.5261	-0.129443	0.006	-0.82089	0	-1.024	0	0	0	0	0.00020805	0	-0.000117561	0	0	0
7.39	3.09188	534.693	-40.7055	-0.240711	0.006	-0.457607	0	-1.6826	0	6.37058	132.752	21.2915	-0.130266	0.006	-0.821502	0	-1.05519	0	0	0	0	0.00020805	0	-0.000117561	0	0	0
7.4	3.32005	534.772	-41.0253	-0.240946	0.006	-0.457597	0	-1.6255	0	6.30911	135.059	22.0864	-0.131032	0.006	-0.822151	0	-1.08496	0	0	0	0	0.00020805	0	-0.000117561	0	0	0
7.41	3.61062	534.54	-41.2573	-0.241181	0.006	-0.457602	0	-1.5667	0	6.18296	137.37	22.8976	-0.131737	0.006	-0.822825	0	-1.11164	0	0	0	0	0.00020805	0	-0.000117561	0	0	0
7.42	3.94959	533.998	-41.4024	-0.241416	0.006	-0.457622	0	-1.50643	0	5.97695	139.733	23.7124	-0.132377	0.006	-0.823513	0	-1.13393	0	0	0	0	0.00020805	0	-0.000117561	0	0	0
7.43	4.32228	533.159	-41.4678	-0.241653	0.006	-0.457659	0	-1.44511	0	5.6755	142.205	24.5215	-0.132949	0.006	-0.824202	0	-1.15063	0	0	0	0	0.00020805	0	-0.000117561	0	0	0
7.44	4.71409	532.055	-41.4653	-0.241896	0.006	-0.457713	0	-1.38327	0	5.26353	144.853	25.3202	-0.133453	0.006	-0.82488	0	-1.16078	0	0	0	0	0.00020805	0	-0.000117561	0	0	0
7.45	5.11039	530.731	-41.4096	-0.242148	0.006	-0.457783	0	-1.3216	0	4.72767	147.75	26.1086	-0.133892	0.006	-0.82554	0	-1.16353	0	0	0	0	0.00020805	0	-0.000117561	0	0	0
